<svg width="19" height="19" viewBox="0 0 19 19" fill="none" xmlns="http://www.w3.org/2000/svg">
<path d="M2.55249 18.0625C2.00249 18.0625 1.53166 17.8667 1.13999 17.475C0.748324 17.0833 0.55249 16.6125 0.55249 16.0625V2.0625C0.55249 1.5125 0.748324 1.04167 1.13999 0.65C1.53166 0.258333 2.00249 0.0625 2.55249 0.0625H16.5525C17.1025 0.0625 17.5733 0.258333 17.965 0.65C18.3567 1.04167 18.5525 1.5125 18.5525 2.0625V16.0625C18.5525 16.6125 18.3567 17.0833 17.965 17.475C17.5733 17.8667 17.1025 18.0625 16.5525 18.0625H2.55249ZM2.55249 16.0625H16.5525V13.0625H13.5525C13.0525 13.6958 12.4567 14.1875 11.765 14.5375C11.0733 14.8875 10.3358 15.0625 9.55249 15.0625C8.76916 15.0625 8.03166 14.8875 7.33999 14.5375C6.64832 14.1875 6.05249 13.6958 5.55249 13.0625H2.55249V16.0625ZM9.55249 13.0625C10.1858 13.0625 10.7608 12.8792 11.2775 12.5125C11.7942 12.1458 12.1525 11.6625 12.3525 11.0625H16.5525V2.0625H2.55249V11.0625H6.75249C6.95249 11.6625 7.31082 12.1458 7.82749 12.5125C8.34416 12.8792 8.91916 13.0625 9.55249 13.0625ZM9.55249 11.0625L5.55249 7.0625L6.95249 5.6125L8.55249 7.2125V3.0625H10.5525V7.2125L12.1525 5.6125L13.5525 7.0625L9.55249 11.0625Z" fill="#1E7A59"/>
</svg>
